<?xml version="1.0" standalone="no"?>
<svg xmlns="http://www.w3.org/2000/svg" viewBox="0 0 189 68" width="189" height="68"><g fill="#f9e1e1" color="#f9e1e1" transform="translate(76.689 0) scale(0.7954546) "><svg width="44.0" height="41.0" x="0.0" y="0.0" viewBox="0 0 44 41"><path fill="currentColor" fill-rule="evenodd" d="M22 10.397c-1.481 2.303-2.389 4.768-2.445 6.76-.026.929.341 1.9.958 2.535.877.9 2.1.9 2.974-.001.618-.635.984-1.606.958-2.534-.056-1.992-.964-4.457-2.445-6.76zM11.407 3.259C5.4 3.26 3.26 7.89 3.26 12.222c0 8.2 12.733 19.513 18.741 24.049 6.008-4.536 18.74-15.85 18.74-24.049 0-4.333-2.14-8.963-8.147-8.963-2.847 0-5.892 1.598-8.496 4.426 2.195 3.062 3.524 6.49 3.606 9.38.051 1.804-.651 3.635-1.878 4.898C24.78 23.037 23.422 23.63 22 23.63c-1.422 0-2.78-.592-3.823-1.666-1.228-1.263-1.93-3.094-1.88-4.899.082-2.89 1.411-6.318 3.606-9.38-2.604-2.828-5.649-4.426-8.496-4.426zM22 40.305l-.952-.686C20.188 39 0 24.325 0 12.222 0 4.912 4.584 0 11.407 0 15.05 0 18.833 1.859 22 5.158 25.167 1.858 28.949 0 32.593 0 39.416 0 44 4.912 44 12.222 44 24.325 23.812 39 22.953 39.62l-.953.686z"></path></svg></g><line x1="77.73800000000001" y1="38.61363636363636" x2="110.638" y2="38.61363636363636" stroke="#a3a6e0" stroke-linecap="round"></line><path fill="#a3a6e0" fill-rule="nonzero" d="M1.73 5.33L1.73 5.33Q1.73 5.76 1.92 6.19L1.92 6.19Q1.70 6.48 1.20 6.48Q0.70 6.48 0.35 6.12Q0 5.76 0 4.94L0 4.94Q0 3.05 1.15 1.86Q2.30 0.67 4.22 0.67L4.22 0.67Q7.39 0.67 7.99 4.13L7.99 4.13Q8.52 2.52 9.72 1.56Q10.92 0.60 12.53 0.60L12.53 0.60Q16.08 0.62 17.11 4.49L17.11 4.49Q17.59 2.74 18.83 1.67Q20.06 0.60 21.77 0.60L21.77 0.60Q24.26 0.62 25.50 2.48Q26.74 4.34 26.74 7.46L26.74 7.46L26.74 14.26Q26.74 15.65 27.30 16.49Q27.86 17.33 28.78 17.33L28.78 17.33Q31.03 17.33 31.03 12.82L31.03 12.82Q31.06 12.67 31.28 12.67Q31.51 12.67 31.63 12.74L31.63 12.74Q31.99 13.01 31.99 13.92L31.99 13.92Q31.99 15.94 31.03 17.18Q30.07 18.43 28.49 18.43L28.49 18.43Q26.18 18.43 25.32 16.82L25.32 16.82Q24.55 15.36 24.55 12.82L24.55 12.82L24.55 7.46Q24.55 1.80 21.77 1.80L21.77 1.80Q19.70 1.80 18.59 3.62Q17.47 5.45 17.47 8.47L17.47 8.47L17.47 16.82Q17.47 17.54 17.11 17.92Q16.75 18.29 16.22 18.29Q15.70 18.29 15.31 17.95L15.31 17.95L15.31 7.46Q15.31 1.80 12.53 1.80L12.53 1.80Q10.32 1.80 9.26 3.92Q8.21 6.05 8.21 9.62L8.21 9.62L8.21 12.70Q8.21 15.67 7.26 17.41Q6.31 19.15 4.40 19.15Q2.50 19.15 1.54 18.28Q0.58 17.40 0.58 15.96L0.58 15.96Q0.58 14.11 1.78 14.11L1.78 14.11Q2.06 14.11 2.28 14.24Q2.50 14.38 2.64 14.66L2.64 14.66Q2.45 15.17 2.45 16.16Q2.45 17.16 2.96 17.66Q3.48 18.17 4.27 18.17L4.27 18.17Q5.98 18.17 5.98 14.14L5.98 14.14L5.98 4.85Q5.98 3.46 5.41 2.62Q4.85 1.78 3.88 1.78Q2.90 1.78 2.32 2.56Q1.73 3.34 1.73 5.33ZM38.06 7.78L38.06 7.78Q38.38 7.08 39.06 7.08Q39.74 7.08 40.08 7.42L40.08 7.42L40.08 14.30Q40.08 15.67 40.51 16.37Q40.94 17.06 41.69 17.06L41.69 17.06Q43.94 17.06 43.94 12.38L43.94 12.38Q43.97 12.24 44.30 12.24L44.30 12.24Q44.74 12.24 44.74 13.51L44.74 13.51Q44.74 15.55 43.86 16.78Q42.98 18 41.40 18L41.40 18Q38.98 18 38.18 15.86L38.18 15.86Q37.73 16.85 36.94 17.42Q36.14 18 35.14 18L35.14 18Q30.94 18 30.94 12.50L30.94 12.50Q30.94 9.72 32.24 8.40Q33.55 7.08 35.71 7.08L35.71 7.08Q37.37 7.08 38.06 7.78ZM33.55 15.46Q33.89 16.51 34.32 16.79Q34.75 17.06 35.47 17.06Q36.19 17.06 37.04 16.16Q37.90 15.26 37.90 13.82L37.90 13.82L37.90 10.54Q37.90 9.41 37.31 8.71Q36.72 8.02 35.99 8.02Q35.26 8.02 34.82 8.16Q34.39 8.30 34.01 8.76L34.01 8.76Q33.22 9.62 33.22 12.50L33.22 12.50Q33.22 14.40 33.55 15.46ZM50.45 8.54Q50.45 7.82 50.86 7.45Q51.26 7.08 51.84 7.08Q52.42 7.08 52.75 7.42L52.75 7.42L52.75 14.30Q52.75 15.67 53.18 16.37Q53.62 17.06 54.36 17.06L54.36 17.06Q55.10 17.06 55.80 16.20L55.80 16.20Q56.62 15.17 56.62 12.38L56.62 12.38Q56.64 12.24 56.98 12.24L56.98 12.24Q57.41 12.24 57.41 13.51L57.41 13.51Q57.41 15.55 56.53 16.78Q55.66 18 54.07 18L54.07 18Q51.55 18 50.76 15.72L50.76 15.72Q49.82 18 47.33 18L47.33 18Q45.84 18 44.93 17.10Q44.02 16.20 44.02 14.52L44.02 14.52L44.02 8.54Q44.02 7.82 44.38 7.45Q44.74 7.08 45.29 7.08Q45.84 7.08 46.18 7.42L46.18 7.42L46.18 14.30Q46.18 17.16 47.62 17.16L47.62 17.16Q48.70 17.16 49.57 15.86Q50.45 14.57 50.45 12.22L50.45 12.22L50.45 8.54ZM61.08 13.10Q60.12 12.77 59.17 12.40Q58.22 12.02 57.58 11.33Q56.93 10.63 56.93 9.54Q56.93 8.45 57.94 7.76Q58.94 7.08 60.88 7.08Q62.81 7.08 63.90 7.75Q64.99 8.42 64.99 9.31L64.99 9.31Q64.99 9.74 64.67 10.01Q64.34 10.27 64.03 10.27L64.03 10.27Q63.43 10.27 63.24 9.98L63.24 9.98Q63.38 9.82 63.38 9.32Q63.38 8.83 62.64 8.42Q61.90 8.02 60.98 8.02Q60.07 8.02 59.47 8.35Q58.87 8.69 58.87 9.37Q58.87 10.06 59.56 10.56Q60.24 11.06 61.21 11.40Q62.18 11.74 63.16 12.12Q64.13 12.50 64.81 13.21Q65.50 13.92 65.50 14.95L65.50 14.95Q65.50 16.49 64.16 17.24Q62.83 18 60.66 18Q58.49 18 57.13 16.74Q55.78 15.48 55.78 13.61L55.78 13.61Q55.78 12.94 56.04 12.55Q56.30 12.17 56.64 12.17L56.64 12.17Q57.26 12.17 57.36 12.38L57.36 12.38L57.41 12.46Q57.26 12.82 57.26 13.34L57.26 13.34Q57.26 14.95 58.20 16.01Q59.14 17.06 60.79 17.06L60.79 17.06Q63.34 17.06 63.36 15.26L63.36 15.26Q63.36 13.90 61.08 13.10L61.08 13.10ZM75.91 5.06L75.91 5.06Q75.91 5.52 76.06 5.95L76.06 5.95Q75.91 6.24 75.41 6.24Q74.90 6.24 74.54 5.88Q74.18 5.52 74.18 4.92L74.18 4.92Q74.18 3.55 75.35 2.39Q76.51 1.22 78.20 0.61Q79.90 0 81.62 0L81.62 0Q89.69 0 89.69 5.78L89.69 5.78Q89.69 7.30 88.78 8.48Q87.86 9.67 86.65 10.22Q85.44 10.78 84.29 10.78L84.29 10.78Q85.63 10.78 86.68 11.38Q87.72 11.98 88.38 12.94Q89.04 13.90 89.60 15.06Q90.17 16.22 90.72 17.40Q91.27 18.58 91.92 19.54Q92.57 20.50 93.59 21.10Q94.61 21.70 95.93 21.70L95.93 21.70Q96.53 21.70 96.91 21.46L96.91 21.46Q97.27 21.48 97.27 21.86L97.27 21.86Q97.27 22.68 95.59 22.68Q93.91 22.68 92.59 22.06Q91.27 21.43 90.46 20.42Q89.64 19.42 88.98 18.20Q88.32 16.99 87.74 15.79Q87.17 14.59 86.53 13.58Q85.90 12.58 84.91 11.95Q83.93 11.33 82.66 11.33L82.66 11.33Q82.03 11.33 82.03 10.66L82.03 10.66Q82.03 10.37 82.22 10.22Q82.42 10.08 82.66 10.08L82.66 10.08Q84.89 10.08 86.18 8.77Q87.48 7.46 87.48 5.78L87.48 5.78Q87.48 3.43 85.90 2.30Q84.31 1.18 81.95 1.18Q79.58 1.18 77.75 2.29Q75.91 3.41 75.91 5.06ZM78.70 4.37Q78.70 3.65 79.06 3.28Q79.42 2.90 79.92 2.90Q80.42 2.90 80.90 3.24L80.90 3.24L80.90 13.82Q80.90 16.34 79.96 17.83Q79.01 19.32 77.10 19.32Q75.19 19.32 74.23 18.44Q73.27 17.57 73.27 16.13L73.27 16.13Q73.27 14.28 74.47 14.28L74.47 14.28Q74.76 14.28 74.98 14.42Q75.19 14.57 75.34 14.83L75.34 14.83Q75.14 15.34 75.14 16.32Q75.14 17.30 75.66 17.82Q76.18 18.34 76.97 18.34L76.97 18.34Q78.70 18.34 78.70 15.26L78.70 15.26L78.70 4.37ZM101.74 12.53L101.74 12.53Q102.24 12.53 102.24 13.30L102.24 13.30Q102.24 15.07 101.00 16.54Q99.77 18 97.25 18Q94.73 18 93.20 16.64Q91.68 15.29 91.68 12.66Q91.68 10.03 93.02 8.56Q94.37 7.08 96.46 7.08L96.46 7.08Q97.97 7.08 98.66 7.88Q99.36 8.69 99.36 9.79L99.36 9.79Q99.36 11.59 97.86 12.78Q96.36 13.97 94.03 13.97L94.03 13.97Q94.25 15.50 95.15 16.28Q96.05 17.06 97.52 17.06Q99 17.06 100.19 15.95Q101.38 14.83 101.38 12.67L101.38 12.67Q101.40 12.53 101.74 12.53ZM93.96 12.86L93.96 12.86L93.96 13.08Q95.45 12.89 96.54 12.14Q97.63 11.40 97.63 9.94L97.63 9.94Q97.63 9 97.22 8.51Q96.82 8.02 96.07 8.02L96.07 8.02Q94.94 8.02 94.45 9.12Q93.96 10.22 93.96 12.86ZM105.86 13.10Q104.90 12.77 103.96 12.40Q103.01 12.02 102.36 11.33Q101.71 10.63 101.71 9.54Q101.71 8.45 102.72 7.76Q103.73 7.08 105.66 7.08Q107.59 7.08 108.68 7.75Q109.78 8.42 109.78 9.31L109.78 9.31Q109.78 9.74 109.45 10.01Q109.13 10.27 108.82 10.27L108.82 10.27Q108.22 10.27 108.02 9.98L108.02 9.98Q108.17 9.82 108.17 9.32Q108.17 8.83 107.42 8.42Q106.68 8.02 105.77 8.02Q104.86 8.02 104.26 8.35Q103.66 8.69 103.66 9.37Q103.66 10.06 104.34 10.56Q105.02 11.06 106.00 11.40Q106.97 11.74 107.94 12.12Q108.91 12.50 109.60 13.21Q110.28 13.92 110.28 14.95L110.28 14.95Q110.28 16.49 108.95 17.24Q107.62 18 105.44 18Q103.27 18 101.92 16.74Q100.56 15.48 100.56 13.61L100.56 13.61Q100.56 12.94 100.82 12.55Q101.09 12.17 101.42 12.17L101.42 12.17Q102.05 12.17 102.14 12.38L102.14 12.38L102.19 12.46Q102.05 12.82 102.05 13.34L102.05 13.34Q102.05 14.95 102.98 16.01Q103.92 17.06 105.58 17.06L105.58 17.06Q108.12 17.06 108.14 15.26L108.14 15.26Q108.14 13.90 105.86 13.10L105.86 13.10ZM111.70 4.99Q111.70 4.27 112.06 3.90Q112.42 3.53 112.97 3.53Q113.52 3.53 113.86 3.86L113.86 3.86L113.86 7.42L117.14 7.42Q117.65 7.42 117.80 7.61Q117.96 7.80 117.96 8.26L117.96 8.26L113.86 8.26L113.86 14.30Q113.86 15.62 114.61 16.34Q115.37 17.06 116.35 17.06L116.35 17.06Q117.84 17.06 118.54 15.96Q119.23 14.86 119.23 12.38L119.23 12.38Q119.28 12.24 119.59 12.24L119.59 12.24Q120.02 12.24 120.02 13.51L120.02 13.51Q120.02 15.46 119.05 16.73Q118.08 18 116.06 18Q114.05 18 112.87 16.94Q111.70 15.89 111.70 13.80L111.70 13.80L111.70 4.99ZM126.41 7.78L126.41 7.78Q126.72 7.08 127.40 7.08Q128.09 7.08 128.42 7.42L128.42 7.42L128.42 14.30Q128.42 15.67 128.86 16.37Q129.29 17.06 130.03 17.06L130.03 17.06Q132.29 17.06 132.29 12.38L132.29 12.38Q132.31 12.24 132.65 12.24L132.65 12.24Q133.08 12.24 133.08 13.51L133.08 13.51Q133.08 15.55 132.20 16.78Q131.33 18 129.74 18L129.74 18Q127.32 18 126.53 15.86L126.53 15.86Q126.07 16.85 125.28 17.42Q124.49 18 123.48 18L123.48 18Q119.28 18 119.28 12.50L119.28 12.50Q119.28 9.72 120.59 8.40Q121.90 7.08 124.06 7.08L124.06 7.08Q125.71 7.08 126.41 7.78ZM121.90 15.46Q122.23 16.51 122.66 16.79Q123.10 17.06 123.82 17.06Q124.54 17.06 125.39 16.16Q126.24 15.26 126.24 13.82L126.24 13.82L126.24 10.54Q126.24 9.41 125.65 8.71Q125.06 8.02 124.33 8.02Q123.60 8.02 123.17 8.16Q122.74 8.30 122.35 8.76L122.35 8.76Q121.56 9.62 121.56 12.50L121.56 12.50Q121.56 14.40 121.90 15.46ZM138.79 8.54Q138.79 7.82 139.20 7.45Q139.61 7.08 140.18 7.08Q140.76 7.08 141.10 7.42L141.10 7.42L141.10 14.30Q141.10 15.67 141.53 16.37Q141.96 17.06 142.70 17.06L142.70 17.06Q143.45 17.06 144.14 16.20L144.14 16.20Q144.96 15.17 144.96 12.38L144.96 12.38Q144.98 12.24 145.32 12.24L145.32 12.24Q145.75 12.24 145.75 13.51L145.75 13.51Q145.75 15.55 144.88 16.78Q144 18 142.42 18L142.42 18Q139.90 18 139.10 15.72L139.10 15.72Q138.17 18 135.67 18L135.67 18Q134.18 18 133.27 17.10Q132.36 16.20 132.36 14.52L132.36 14.52L132.36 8.54Q132.36 7.82 132.72 7.45Q133.08 7.08 133.63 7.08Q134.18 7.08 134.52 7.42L134.52 7.42L134.52 14.30Q134.52 17.16 135.96 17.16L135.96 17.16Q137.04 17.16 137.92 15.86Q138.79 14.57 138.79 12.22L138.79 12.22L138.79 8.54ZM147.17 13.85L147.17 13.85L147.17 17.66Q146.93 18 146.33 18Q145.73 18 145.37 17.63Q145.01 17.26 145.01 16.54L145.01 16.54L145.01 7.42Q145.25 7.08 145.85 7.08Q146.45 7.08 146.81 7.45Q147.17 7.82 147.17 8.54L147.17 8.54L147.17 10.37Q148.37 7.39 150.48 7.39L150.48 7.39Q151.99 7.39 152.69 8.20Q153.38 9 153.38 10.10L153.38 10.10Q153.38 10.70 153.02 11.06Q152.66 11.42 152.33 11.42L152.33 11.42Q151.70 11.42 151.51 11.14L151.51 11.14Q151.66 10.78 151.66 10.10Q151.66 9.43 151.20 8.88Q150.74 8.33 150.10 8.33L150.10 8.33Q148.97 8.33 148.07 10.38Q147.17 12.43 147.17 13.85ZM161.45 7.78L161.45 7.78Q161.76 7.08 162.44 7.08Q163.13 7.08 163.46 7.42L163.46 7.42L163.46 14.30Q163.46 15.67 163.90 16.37Q164.33 17.06 165.07 17.06L165.07 17.06Q167.33 17.06 167.33 12.38L167.33 12.38Q167.35 12.24 167.69 12.24L167.69 12.24Q168.12 12.24 168.12 13.51L168.12 13.51Q168.12 15.55 167.24 16.78Q166.37 18 164.78 18L164.78 18Q162.36 18 161.57 15.86L161.57 15.86Q161.11 16.85 160.32 17.42Q159.53 18 158.52 18L158.52 18Q154.32 18 154.32 12.50L154.32 12.50Q154.32 9.72 155.63 8.40Q156.94 7.08 159.10 7.08L159.10 7.08Q160.75 7.08 161.45 7.78ZM156.94 15.46Q157.27 16.51 157.70 16.79Q158.14 17.06 158.86 17.06Q159.58 17.06 160.43 16.16Q161.28 15.26 161.28 13.82L161.28 13.82L161.28 10.54Q161.28 9.41 160.69 8.71Q160.10 8.02 159.37 8.02Q158.64 8.02 158.21 8.16Q157.78 8.30 157.39 8.76L157.39 8.76Q156.60 9.62 156.60 12.50L156.60 12.50Q156.60 14.40 156.94 15.46ZM180.36 12.24L180.36 12.24Q180.79 12.24 180.79 13.51L180.79 13.51Q180.79 15.55 179.92 16.78Q179.04 18 177.36 18Q175.68 18 174.78 16.85Q173.88 15.70 173.88 13.58L173.88 13.58L173.88 10.78Q173.88 7.92 172.44 7.92L172.44 7.92Q171.17 7.92 170.35 9.22Q169.54 10.51 169.54 13.56L169.54 13.56L169.54 17.66Q169.30 18 168.70 18Q168.10 18 167.74 17.63Q167.38 17.26 167.38 16.54L167.38 16.54L167.38 7.42Q167.62 7.08 168.29 7.08L168.29 7.08Q169.54 7.08 169.54 8.88L169.54 8.88Q170.54 7.08 172.73 7.08L172.73 7.08Q174.29 7.08 175.21 8.06Q176.14 9.05 176.14 10.90L176.14 10.90L176.14 14.30Q176.14 15.67 176.57 16.37Q177.00 17.06 177.85 17.06Q178.70 17.06 179.35 16.00Q180.00 14.93 180.00 12.38L180.00 12.38Q180.02 12.24 180.36 12.24ZM180.05 4.99Q180.05 4.27 180.41 3.90Q180.77 3.53 181.32 3.53Q181.87 3.53 182.21 3.86L182.21 3.86L182.21 7.42L185.50 7.42Q186.00 7.42 186.16 7.61Q186.31 7.80 186.31 8.26L186.31 8.26L182.21 8.26L182.21 14.30Q182.21 15.62 182.96 16.34Q183.72 17.06 184.70 17.06L184.70 17.06Q186.19 17.06 186.89 15.96Q187.58 14.86 187.58 12.38L187.58 12.38Q187.63 12.24 187.94 12.24L187.94 12.24Q188.38 12.24 188.38 13.51L188.38 13.51Q188.38 15.46 187.40 16.73Q186.43 18 184.42 18Q182.40 18 181.22 16.94Q180.05 15.89 180.05 13.80L180.05 13.80L180.05 4.99Z" transform="translate(0, 44.614)"></path></svg>