<?xml version="1.0" standalone="no"?>
<svg xmlns="http://www.w3.org/2000/svg" viewBox="0 0 273.868 29" width="273.868" height="29"><g fill="#ead017" color="#ead017" transform="translate(0, 0) scale(0.1961992)"><svg width="100.0" height="147.809" x="0.0" y="0.0" viewBox="0 0 100 147.809"><path d="M72.673,45.27V27.897c0-1.537-1.246-2.784-2.782-2.784H4.396c-1.537,0-2.784,1.247-2.784,2.784v115.018  c0,1.537,1.247,2.783,2.784,2.783h65.495c1.536,0,2.782-1.246,2.782-2.783v-20.789c14.57-1.032,26.112-13.207,26.112-28.036V73.307  C98.785,58.478,87.243,46.301,72.673,45.27z M67.105,140.132H7.179v-10.693h59.926V140.132z M16.87,113.229V56.271  c0-1.537,1.247-2.784,2.784-2.784c1.537,0,2.784,1.247,2.784,2.784v56.958c0,1.537-1.247,2.783-2.784,2.783  C18.117,116.012,16.87,114.766,16.87,113.229z M34.359,113.229V56.271c0-1.537,1.247-2.784,2.784-2.784s2.784,1.247,2.784,2.784  v56.958c0,1.537-1.247,2.783-2.784,2.783S34.359,114.766,34.359,113.229z M51.848,113.229V56.271c0-1.537,1.246-2.784,2.783-2.784  s2.783,1.247,2.783,2.784v56.958c0,1.537-1.246,2.783-2.783,2.783S51.848,114.766,51.848,113.229z M67.105,41.913H7.179V30.681  h59.926V41.913z M72.673,62.08c5.339,0.951,9.411,5.618,9.411,11.228V94.09c0,5.608-4.072,10.275-9.411,11.228V62.08z M93.218,94.09  c0,11.759-9.048,21.438-20.545,22.455v-5.603c8.421-0.996,14.979-8.167,14.979-16.854V73.307c0-8.687-6.559-15.857-14.979-16.854  v-5.603c11.497,1.018,20.545,10.696,20.545,22.455V94.09z"></path><path d="M70.009,23.555c-1.519,0-2.75-1.231-2.75-2.75c0-3.089-3.849-12.412-10.851-12.412H17.877  c-7.002,0-10.851,9.322-10.851,12.412c0,1.519-1.231,2.75-2.75,2.75s-2.75-1.231-2.75-2.75c0-5.356,5.563-17.912,16.351-17.912  h38.531c10.788,0,16.351,12.555,16.351,17.912C72.759,22.323,71.527,23.555,70.009,23.555z"></path></svg></g><line x1="31.62" y1="1" x2="31.62" y2="28" stroke="#000000" stroke-linecap="round"></line><path fill="#000000" fill-rule="nonzero" d="M19.78 17.40L14.52 17.40L14.52 11.45Q14.52 10.34 14.60 9.18Q14.69 8.02 14.78 7.22Q14.88 6.43 14.90 6.22L14.90 6.22L14.81 6.22L11.76 17.40L7.61 17.40L4.54 6.24L4.44 6.24Q4.46 6.46 4.57 7.24Q4.68 8.02 4.78 9.18Q4.87 10.34 4.87 11.45L4.87 11.45L4.87 17.40L0 17.40L0 0.89L7.49 0.89L9.98 10.42L10.08 10.42L12.55 0.89L19.78 0.89L19.78 17.40ZM29.21 4.44Q32.54 4.44 34.45 6.13Q36.36 7.82 36.36 11.06L36.36 11.06Q36.36 14.30 34.45 16.00Q32.54 17.69 29.21 17.69L29.21 17.69Q25.87 17.69 23.98 16.01Q22.08 14.33 22.08 11.06L22.08 11.06Q22.08 7.80 23.98 6.12Q25.87 4.44 29.21 4.44L29.21 4.44ZM29.21 7.68Q26.86 7.68 26.86 10.39L26.86 10.39L26.86 11.76Q26.86 14.45 29.21 14.45L29.21 14.45Q31.58 14.45 31.58 11.76L31.58 11.76L31.58 10.39Q31.58 7.68 29.21 7.68L29.21 7.68ZM46.37 4.42Q46.92 4.42 47.35 4.55Q47.78 4.68 47.78 4.70L47.78 4.70L47.78 8.71L46.25 8.71Q44.76 8.71 44.10 9.48Q43.44 10.25 43.44 11.76L43.44 11.76L43.44 17.40L38.66 17.40L38.66 4.73L42.58 4.73L42.89 6.65Q43.32 5.54 44.26 4.98Q45.19 4.42 46.37 4.42L46.37 4.42ZM54.26 3.24L49.49 3.24L49.49 0L54.26 0L54.26 3.24ZM54.26 17.40L49.49 17.40L49.49 4.73L54.26 4.73L54.26 17.40ZM63.07 4.73L65.76 4.73L65.76 7.97L63.07 7.97L63.07 12.79Q63.07 13.66 63.36 14.05Q63.65 14.45 64.42 14.45L64.42 14.45L65.76 14.45L65.76 17.26Q65.18 17.45 64.27 17.57Q63.36 17.69 62.69 17.69L62.69 17.69Q60.58 17.69 59.44 16.92Q58.30 16.15 58.30 14.30L58.30 14.30L58.30 7.97L56.52 7.97L56.52 4.73L58.49 4.73L59.52 0.89L63.07 0.89L63.07 4.73ZM79.15 6.22L73.78 14.16L79.37 14.16L79.37 17.40L67.01 17.40L67.01 15.84L72.34 7.97L67.30 7.97L67.30 4.73L79.15 4.73L79.15 6.22ZM105.31 5.95Q105.31 7.46 104.50 8.69Q103.68 9.91 102.12 10.49L102.12 10.49L105.79 17.40L99.84 17.40L96.91 11.38L94.94 11.38L94.94 17.40L89.64 17.40L89.64 0.89L99.74 0.89Q101.52 0.89 102.78 1.57Q104.04 2.26 104.68 3.42Q105.31 4.58 105.31 5.95L105.31 5.95ZM99.91 6.17Q99.91 5.52 99.48 5.09Q99.05 4.66 98.42 4.66L98.42 4.66L94.94 4.66L94.94 7.70L98.42 7.70Q99.05 7.70 99.48 7.26Q99.91 6.82 99.91 6.17L99.91 6.17ZM113.93 4.44Q117.41 4.44 119.24 6.07Q121.08 7.70 121.08 11.06L121.08 11.06L121.08 11.88L111.58 11.88Q111.58 13.25 112.19 13.94Q112.80 14.64 114.12 14.64L114.12 14.64Q115.32 14.64 115.88 14.14Q116.45 13.63 116.45 12.79L116.45 12.79L121.08 12.79Q121.08 15.10 119.33 16.39Q117.58 17.69 114.22 17.69L114.22 17.69Q110.69 17.69 108.74 16.04Q106.80 14.40 106.80 11.06L106.80 11.06Q106.80 7.80 108.70 6.12Q110.59 4.44 113.93 4.44L113.93 4.44ZM114.12 7.49Q111.86 7.49 111.60 9.62L111.60 9.62L116.26 9.62Q116.26 8.64 115.69 8.06Q115.13 7.49 114.12 7.49L114.12 7.49ZM129.41 4.44Q131.95 4.44 133.72 5.44Q135.48 6.43 135.48 8.52L135.48 8.52L131.04 8.52Q131.04 7.82 130.42 7.54L130.42 7.54Q129.98 7.30 129.34 7.30L129.34 7.30Q127.61 7.30 127.61 8.11L127.61 8.11Q127.61 8.57 128.21 8.76Q128.81 8.95 130.18 9.17L130.18 9.17Q131.86 9.41 132.98 9.73Q134.11 10.06 134.95 10.88Q135.79 11.71 135.79 13.20L135.79 13.20Q135.79 15.62 133.98 16.66Q132.17 17.69 129.24 17.69L129.24 17.69Q127.56 17.69 126.07 17.22Q124.58 16.75 123.65 15.77Q122.71 14.78 122.71 13.27L122.71 13.27L127.15 13.27L127.15 13.37Q127.18 14.18 127.84 14.51Q128.50 14.83 129.24 14.83L129.24 14.83Q131.23 14.83 131.23 13.90L131.23 13.90Q131.23 13.42 130.61 13.20Q129.98 12.98 128.57 12.74L128.57 12.74Q126.86 12.46 125.77 12.12Q124.68 11.78 123.86 10.98Q123.05 10.18 123.05 8.74L123.05 8.74Q123.05 6.41 124.81 5.42Q126.58 4.44 129.41 4.44L129.41 4.44ZM143.81 4.73L146.50 4.73L146.50 7.97L143.81 7.97L143.81 12.79Q143.81 13.66 144.10 14.05Q144.38 14.45 145.15 14.45L145.15 14.45L146.50 14.45L146.50 17.26Q145.92 17.45 145.01 17.57Q144.10 17.69 143.42 17.69L143.42 17.69Q141.31 17.69 140.17 16.92Q139.03 16.15 139.03 14.30L139.03 14.30L139.03 7.97L137.26 7.97L137.26 4.73L139.22 4.73L140.26 0.89L143.81 0.89L143.81 4.73ZM154.97 4.44Q157.87 4.44 159.70 5.41Q161.52 6.38 161.52 8.57L161.52 8.57L161.52 13.51Q161.52 13.92 161.71 14.18Q161.90 14.45 162.29 14.45L162.29 14.45L163.15 14.45L163.15 17.21Q163.08 17.26 162.78 17.36Q162.48 17.47 161.93 17.58Q161.38 17.69 160.66 17.69L160.66 17.69Q159.26 17.69 158.36 17.27Q157.46 16.85 157.13 16.10L157.13 16.10Q156.22 16.82 155.09 17.26Q153.96 17.69 152.45 17.69L152.45 17.69Q147.98 17.69 147.98 14.14L147.98 14.14Q147.98 12.29 148.98 11.32Q149.98 10.34 151.85 9.98Q153.72 9.62 156.74 9.62L156.74 9.62L156.74 9.00Q156.74 8.26 156.23 7.87Q155.71 7.49 154.90 7.49L154.90 7.49Q154.15 7.49 153.61 7.75Q153.07 8.02 153.07 8.59L153.07 8.59L153.07 8.69L148.37 8.69Q148.34 8.57 148.34 8.35L148.34 8.35Q148.34 6.55 150.06 5.50Q151.78 4.44 154.97 4.44L154.97 4.44ZM156.74 11.88Q154.70 11.88 153.73 12.32Q152.76 12.77 152.76 13.51L152.76 13.51Q152.76 14.71 154.39 14.71L154.39 14.71Q155.33 14.71 156.04 14.21Q156.74 13.70 156.74 12.96L156.74 12.96L156.74 11.88ZM177.82 17.40L173.90 17.40L173.59 15.48Q172.85 16.51 171.64 17.10Q170.42 17.69 169.08 17.69L169.08 17.69Q166.87 17.69 165.77 16.46Q164.66 15.24 164.66 12.94L164.66 12.94L164.66 4.73L169.44 4.73L169.44 12.36Q169.44 13.18 169.86 13.67Q170.28 14.16 171.05 14.16L171.05 14.16Q171.94 14.16 172.49 13.58Q173.04 13.01 173.04 12.17L173.04 12.17L173.04 4.73L177.82 4.73L177.82 17.40ZM188.42 4.42Q188.98 4.42 189.41 4.55Q189.84 4.68 189.84 4.70L189.84 4.70L189.84 8.71L188.30 8.71Q186.82 8.71 186.16 9.48Q185.50 10.25 185.50 11.76L185.50 11.76L185.50 17.40L180.72 17.40L180.72 4.73L184.63 4.73L184.94 6.65Q185.38 5.54 186.31 4.98Q187.25 4.42 188.42 4.42L188.42 4.42ZM198.05 4.44Q200.95 4.44 202.78 5.41Q204.60 6.38 204.60 8.57L204.60 8.57L204.60 13.51Q204.60 13.92 204.79 14.18Q204.98 14.45 205.37 14.45L205.37 14.45L206.23 14.45L206.23 17.21Q206.16 17.26 205.86 17.36Q205.56 17.47 205.01 17.58Q204.46 17.69 203.74 17.69L203.74 17.69Q202.34 17.69 201.44 17.27Q200.54 16.85 200.21 16.10L200.21 16.10Q199.30 16.82 198.17 17.26Q197.04 17.69 195.53 17.69L195.53 17.69Q191.06 17.69 191.06 14.14L191.06 14.14Q191.06 12.29 192.06 11.32Q193.06 10.34 194.93 9.98Q196.80 9.62 199.82 9.62L199.82 9.62L199.82 9.00Q199.82 8.26 199.31 7.87Q198.79 7.49 197.98 7.49L197.98 7.49Q197.23 7.49 196.69 7.75Q196.15 8.02 196.15 8.59L196.15 8.59L196.15 8.69L191.45 8.69Q191.42 8.57 191.42 8.35L191.42 8.35Q191.42 6.55 193.14 5.50Q194.86 4.44 198.05 4.44L198.05 4.44ZM199.82 11.88Q197.78 11.88 196.81 12.32Q195.84 12.77 195.84 13.51L195.84 13.51Q195.84 14.71 197.47 14.71L197.47 14.71Q198.41 14.71 199.12 14.21Q199.82 13.70 199.82 12.96L199.82 12.96L199.82 11.88ZM216.53 4.44Q218.74 4.44 219.84 5.66Q220.94 6.89 220.94 9.19L220.94 9.19L220.94 17.40L216.17 17.40L216.17 9.77Q216.17 8.95 215.75 8.46Q215.33 7.97 214.56 7.97L214.56 7.97Q213.67 7.97 213.12 8.54Q212.57 9.12 212.57 9.96L212.57 9.96L212.57 17.40L207.79 17.40L207.79 4.73L211.70 4.73L212.02 6.65Q212.76 5.64 213.97 5.04Q215.18 4.44 216.53 4.44L216.53 4.44ZM229.56 4.73L232.25 4.73L232.25 7.97L229.56 7.97L229.56 12.79Q229.56 13.66 229.85 14.05Q230.14 14.45 230.90 14.45L230.90 14.45L232.25 14.45L232.25 17.26Q231.67 17.45 230.76 17.57Q229.85 17.69 229.18 17.69L229.18 17.69Q227.06 17.69 225.92 16.92Q224.78 16.15 224.78 14.30L224.78 14.30L224.78 7.97L223.01 7.97L223.01 4.73L224.98 4.73L226.01 0.89L229.56 0.89L229.56 4.73Z" transform="translate(41.62, 5.8)"></path></svg>